<mxfile host="Electron" modified="2023-08-23T14:02:46.791Z" agent="Mozilla/5.0 (X11; Linux x86_64) AppleWebKit/537.36 (KHTML, like Gecko) draw.io/21.6.8 Chrome/114.0.5735.289 Electron/25.5.0 Safari/537.36" etag="aWzoWdJak9CPGg_o8j6W" version="21.6.8" type="device">
  <diagram name="Page-1" id="TS9KiDRFow964pF4XG-4">
    <mxGraphModel dx="1379" dy="881" grid="1" gridSize="10" guides="1" tooltips="1" connect="1" arrows="1" fold="1" page="1" pageScale="1" pageWidth="827" pageHeight="1169" math="0" shadow="0">
      <root>
        <mxCell id="0" />
        <mxCell id="1" parent="0" />
        <mxCell id="M2DGpuUAFdA61yC9lmG3-1" value="" style="rounded=0;whiteSpace=wrap;html=1;fontFamily=IBM Plex Mono;fontSource=https%3A%2F%2Ffonts.googleapis.com%2Fcss%3Ffamily%3DIBM%2BPlex%2BMono;fontSize=24;strokeWidth=3;fillColor=#f5f5f5;fontColor=#333333;strokeColor=#666666;" parent="1" vertex="1">
          <mxGeometry x="40" y="100" width="180" height="390" as="geometry" />
        </mxCell>
        <mxCell id="M2DGpuUAFdA61yC9lmG3-2" value="x" style="text;html=1;strokeColor=none;fillColor=none;align=center;verticalAlign=middle;whiteSpace=wrap;rounded=0;fontFamily=IBM Plex Mono;fontSource=https%3A%2F%2Ffonts.googleapis.com%2Fcss%3Ffamily%3DIBM%2BPlex%2BMono;fontSize=24;" parent="1" vertex="1">
          <mxGeometry x="80" y="122.5" width="100" height="55" as="geometry" />
        </mxCell>
        <mxCell id="M2DGpuUAFdA61yC9lmG3-6" value="RESULT VALUE" style="text;html=1;strokeColor=none;fillColor=none;align=center;verticalAlign=middle;whiteSpace=wrap;rounded=0;fontFamily=IBM Plex Mono;fontSource=https%3A%2F%2Ffonts.googleapis.com%2Fcss%3Ffamily%3DIBM%2BPlex%2BMono;fontStyle=1;fontSize=24;" parent="1" vertex="1">
          <mxGeometry x="20" y="27.5" width="220" height="80" as="geometry" />
        </mxCell>
        <mxCell id="M2DGpuUAFdA61yC9lmG3-7" value="x" style="text;html=1;strokeColor=none;fillColor=none;align=center;verticalAlign=middle;whiteSpace=wrap;rounded=0;fontFamily=IBM Plex Mono;fontSource=https%3A%2F%2Ffonts.googleapis.com%2Fcss%3Ffamily%3DIBM%2BPlex%2BMono;fontSize=24;" parent="1" vertex="1">
          <mxGeometry x="80" y="177.5" width="100" height="55" as="geometry" />
        </mxCell>
        <mxCell id="M2DGpuUAFdA61yC9lmG3-8" value="" style="rounded=0;whiteSpace=wrap;html=1;fontFamily=IBM Plex Mono;fontSource=https%3A%2F%2Ffonts.googleapis.com%2Fcss%3Ffamily%3DIBM%2BPlex%2BMono;fontSize=24;dashed=1;strokeWidth=3;" parent="1" vertex="1">
          <mxGeometry x="330" y="100" width="180" height="390" as="geometry" />
        </mxCell>
        <mxCell id="M2DGpuUAFdA61yC9lmG3-9" value="THREAD A" style="text;html=1;strokeColor=none;fillColor=none;align=center;verticalAlign=middle;whiteSpace=wrap;rounded=0;fontFamily=IBM Plex Mono;fontSource=https%3A%2F%2Ffonts.googleapis.com%2Fcss%3Ffamily%3DIBM%2BPlex%2BMono;fontStyle=1;fontSize=24;" parent="1" vertex="1">
          <mxGeometry x="332.3076923076923" y="40" width="175.3846153846154" height="55" as="geometry" />
        </mxCell>
        <mxCell id="M2DGpuUAFdA61yC9lmG3-10" value="x + 1" style="text;html=1;align=center;verticalAlign=middle;whiteSpace=wrap;rounded=0;fontFamily=IBM Plex Mono;fontSource=https%3A%2F%2Ffonts.googleapis.com%2Fcss%3Ffamily%3DIBM%2BPlex%2BMono;fontSize=24;" parent="1" vertex="1">
          <mxGeometry x="360" y="232.5" width="120" height="55" as="geometry" />
        </mxCell>
        <mxCell id="M2DGpuUAFdA61yC9lmG3-11" value="" style="rounded=0;whiteSpace=wrap;html=1;fontFamily=IBM Plex Mono;fontSource=https%3A%2F%2Ffonts.googleapis.com%2Fcss%3Ffamily%3DIBM%2BPlex%2BMono;fontSize=24;dashed=1;strokeWidth=3;" parent="1" vertex="1">
          <mxGeometry x="610" y="100" width="180" height="390" as="geometry" />
        </mxCell>
        <mxCell id="M2DGpuUAFdA61yC9lmG3-12" value="THREAD B" style="text;html=1;strokeColor=none;fillColor=none;align=center;verticalAlign=middle;whiteSpace=wrap;rounded=0;fontFamily=IBM Plex Mono;fontSource=https%3A%2F%2Ffonts.googleapis.com%2Fcss%3Ffamily%3DIBM%2BPlex%2BMono;fontStyle=1;fontSize=24;" parent="1" vertex="1">
          <mxGeometry x="614.6153846153846" y="40" width="175.3846153846154" height="55" as="geometry" />
        </mxCell>
        <mxCell id="M2DGpuUAFdA61yC9lmG3-13" value="x" style="text;html=1;strokeColor=none;fillColor=none;align=center;verticalAlign=middle;whiteSpace=wrap;rounded=0;perimeterSpacing=1;fontFamily=IBM Plex Mono;fontSource=https%3A%2F%2Ffonts.googleapis.com%2Fcss%3Ffamily%3DIBM%2BPlex%2BMono;fontSize=24;" parent="1" vertex="1">
          <mxGeometry x="650" y="177.5" width="100" height="55" as="geometry" />
        </mxCell>
        <mxCell id="M2DGpuUAFdA61yC9lmG3-14" value="x + 1" style="text;html=1;strokeColor=none;fillColor=none;align=center;verticalAlign=middle;whiteSpace=wrap;rounded=0;fontFamily=IBM Plex Mono;fontSource=https%3A%2F%2Ffonts.googleapis.com%2Fcss%3Ffamily%3DIBM%2BPlex%2BMono;fontSize=24;" parent="1" vertex="1">
          <mxGeometry x="640" y="287.5" width="120" height="55" as="geometry" />
        </mxCell>
        <mxCell id="M2DGpuUAFdA61yC9lmG3-15" value="x + 1" style="text;html=1;strokeColor=none;fillColor=none;align=center;verticalAlign=middle;whiteSpace=wrap;rounded=0;fontFamily=IBM Plex Mono;fontSource=https%3A%2F%2Ffonts.googleapis.com%2Fcss%3Ffamily%3DIBM%2BPlex%2BMono;fontSize=24;" parent="1" vertex="1">
          <mxGeometry x="360" y="342.5" width="120" height="55" as="geometry" />
        </mxCell>
        <mxCell id="M2DGpuUAFdA61yC9lmG3-16" value="x + 1" style="text;html=1;strokeColor=none;fillColor=none;align=center;verticalAlign=middle;whiteSpace=wrap;rounded=0;fontFamily=IBM Plex Mono;fontSource=https%3A%2F%2Ffonts.googleapis.com%2Fcss%3Ffamily%3DIBM%2BPlex%2BMono;fontSize=24;" parent="1" vertex="1">
          <mxGeometry x="640" y="397.5" width="120" height="55" as="geometry" />
        </mxCell>
        <mxCell id="M2DGpuUAFdA61yC9lmG3-17" value="x + 1" style="text;html=1;strokeColor=#82b366;fillColor=#d5e8d4;align=center;verticalAlign=middle;whiteSpace=wrap;rounded=0;fontFamily=IBM Plex Mono;fontSource=https%3A%2F%2Ffonts.googleapis.com%2Fcss%3Ffamily%3DIBM%2BPlex%2BMono;fontSize=24;" parent="1" vertex="1">
          <mxGeometry x="70" y="397.5" width="120" height="55" as="geometry" />
        </mxCell>
        <mxCell id="M2DGpuUAFdA61yC9lmG3-18" value="x + 1" style="text;html=1;strokeColor=#b85450;fillColor=#f8cecc;align=center;verticalAlign=middle;whiteSpace=wrap;rounded=0;fontFamily=IBM Plex Mono;fontSource=https%3A%2F%2Ffonts.googleapis.com%2Fcss%3Ffamily%3DIBM%2BPlex%2BMono;fontSize=24;" parent="1" vertex="1">
          <mxGeometry x="70" y="342.5" width="120" height="55" as="geometry" />
        </mxCell>
        <mxCell id="M2DGpuUAFdA61yC9lmG3-19" value="" style="endArrow=classic;html=1;rounded=0;targetPerimeterSpacing=0;strokeWidth=2;fontFamily=IBM Plex Mono;fontSource=https%3A%2F%2Ffonts.googleapis.com%2Fcss%3Ffamily%3DIBM%2BPlex%2BMono;fontSize=24;" parent="1" target="M2DGpuUAFdA61yC9lmG3-20" edge="1" source="M2DGpuUAFdA61yC9lmG3-2">
          <mxGeometry width="50" height="50" relative="1" as="geometry">
            <mxPoint x="171.53846153846155" y="149.60125" as="sourcePoint" />
            <mxPoint x="389.3076923076923" y="149.60125" as="targetPoint" />
          </mxGeometry>
        </mxCell>
        <mxCell id="uV6x-yhUw1q_1Kfb-T8k-4" value="LOAD" style="edgeLabel;html=1;align=center;verticalAlign=middle;resizable=0;points=[];fontFamily=IBM Plex Mono;fontSource=https%3A%2F%2Ffonts.googleapis.com%2Fcss%3Ffamily%3DIBM%2BPlex%2BMono;fontStyle=1;fontSize=24;labelBackgroundColor=#FFFFFF;" vertex="1" connectable="0" parent="M2DGpuUAFdA61yC9lmG3-19">
          <mxGeometry x="-0.02" relative="1" as="geometry">
            <mxPoint x="1" y="-18" as="offset" />
          </mxGeometry>
        </mxCell>
        <mxCell id="M2DGpuUAFdA61yC9lmG3-20" value="x" style="text;html=1;strokeColor=none;fillColor=none;align=center;verticalAlign=middle;whiteSpace=wrap;rounded=0;fontFamily=IBM Plex Mono;fontSource=https%3A%2F%2Ffonts.googleapis.com%2Fcss%3Ffamily%3DIBM%2BPlex%2BMono;fontSize=24;" parent="1" vertex="1">
          <mxGeometry x="370" y="122.5" width="100" height="55" as="geometry" />
        </mxCell>
        <mxCell id="uV6x-yhUw1q_1Kfb-T8k-1" value="" style="endArrow=classic;html=1;rounded=0;targetPerimeterSpacing=0;strokeWidth=2;fontFamily=IBM Plex Mono;fontSource=https%3A%2F%2Ffonts.googleapis.com%2Fcss%3Ffamily%3DIBM%2BPlex%2BMono;fontSize=24;" edge="1" parent="1" source="M2DGpuUAFdA61yC9lmG3-7" target="M2DGpuUAFdA61yC9lmG3-13">
          <mxGeometry width="50" height="50" relative="1" as="geometry">
            <mxPoint x="171.53846153846155" y="204.60124999999996" as="sourcePoint" />
            <mxPoint x="389.3076923076923" y="204.60124999999996" as="targetPoint" />
          </mxGeometry>
        </mxCell>
        <mxCell id="uV6x-yhUw1q_1Kfb-T8k-5" value="LOAD" style="edgeLabel;html=1;align=center;verticalAlign=middle;resizable=0;points=[];spacing=3;spacingRight=0;fontFamily=IBM Plex Mono;fontSource=https%3A%2F%2Ffonts.googleapis.com%2Fcss%3Ffamily%3DIBM%2BPlex%2BMono;fontStyle=1;fontSize=24;labelBackgroundColor=#FFFFFF;" vertex="1" connectable="0" parent="uV6x-yhUw1q_1Kfb-T8k-1">
          <mxGeometry x="0.01" relative="1" as="geometry">
            <mxPoint x="-143" y="-18" as="offset" />
          </mxGeometry>
        </mxCell>
        <mxCell id="uV6x-yhUw1q_1Kfb-T8k-2" value="" style="endArrow=classic;html=1;rounded=0;strokeWidth=2;sourcePerimeterSpacing=0;fontFamily=IBM Plex Mono;fontSource=https%3A%2F%2Ffonts.googleapis.com%2Fcss%3Ffamily%3DIBM%2BPlex%2BMono;fontSize=24;" edge="1" parent="1" source="M2DGpuUAFdA61yC9lmG3-15" target="M2DGpuUAFdA61yC9lmG3-18">
          <mxGeometry width="50" height="50" relative="1" as="geometry">
            <mxPoint x="350" y="370" as="sourcePoint" />
            <mxPoint x="190" y="370" as="targetPoint" />
          </mxGeometry>
        </mxCell>
        <mxCell id="uV6x-yhUw1q_1Kfb-T8k-6" value="STORE" style="edgeLabel;html=1;align=center;verticalAlign=middle;resizable=0;points=[];fontFamily=IBM Plex Mono;fontSource=https%3A%2F%2Ffonts.googleapis.com%2Fcss%3Ffamily%3DIBM%2BPlex%2BMono;fontStyle=1;fontSize=24;labelBackgroundColor=#FFFFFF;" vertex="1" connectable="0" parent="uV6x-yhUw1q_1Kfb-T8k-2">
          <mxGeometry x="0.01" y="-1" relative="1" as="geometry">
            <mxPoint y="-17" as="offset" />
          </mxGeometry>
        </mxCell>
        <mxCell id="uV6x-yhUw1q_1Kfb-T8k-3" value="" style="endArrow=classic;html=1;rounded=0;strokeWidth=2;sourcePerimeterSpacing=0;fontFamily=IBM Plex Mono;fontSource=https%3A%2F%2Ffonts.googleapis.com%2Fcss%3Ffamily%3DIBM%2BPlex%2BMono;fontSize=24;" edge="1" parent="1" source="M2DGpuUAFdA61yC9lmG3-16" target="M2DGpuUAFdA61yC9lmG3-17">
          <mxGeometry width="50" height="50" relative="1" as="geometry">
            <mxPoint x="610" y="450" as="sourcePoint" />
            <mxPoint x="200" y="425" as="targetPoint" />
          </mxGeometry>
        </mxCell>
        <mxCell id="uV6x-yhUw1q_1Kfb-T8k-7" value="STORE" style="edgeLabel;html=1;align=center;verticalAlign=middle;resizable=0;points=[];fontFamily=IBM Plex Mono;fontSource=https%3A%2F%2Ffonts.googleapis.com%2Fcss%3Ffamily%3DIBM%2BPlex%2BMono;fontStyle=1;fontSize=24;labelBackgroundColor=#FFFFFF;" vertex="1" connectable="0" parent="uV6x-yhUw1q_1Kfb-T8k-3">
          <mxGeometry x="0.59" y="1" relative="1" as="geometry">
            <mxPoint x="-8" y="-19" as="offset" />
          </mxGeometry>
        </mxCell>
        <mxCell id="uV6x-yhUw1q_1Kfb-T8k-9" value="" style="endArrow=none;html=1;rounded=0;strokeWidth=2;fontSize=24;fontFamily=IBM Plex Mono;fontSource=https%3A%2F%2Ffonts.googleapis.com%2Fcss%3Ffamily%3DIBM%2BPlex%2BMono;" edge="1" parent="1">
          <mxGeometry width="50" height="50" relative="1" as="geometry">
            <mxPoint x="60" y="400" as="sourcePoint" />
            <mxPoint x="200" y="340" as="targetPoint" />
          </mxGeometry>
        </mxCell>
      </root>
    </mxGraphModel>
  </diagram>
</mxfile>
